<svg version="1.1" class="logo-small" xmlns="http://www.w3.org/2000/svg" xmlns:xlink="http://www.w3.org/1999/xlink" x="0px" y="0px"
	 viewBox="0 0 25.8 33.7" xml:space="preserve">
<path d="M7.2,33l14.6-17.7c0.4-0.5,0.5-1.2,0.3-1.8c-0.1-0.5-0.5-1-0.9-1.3l-15-5.5C5.6,6.6,5.1,7,4.9,7.5
	C4.8,7.9,5,8.3,5.3,8.5l8.7,6.3c0.2,0.2,0.4,0.4,0.4,0.7c0.1,0.3,0,0.5-0.1,0.8l-9,15.5c-0.1,0.4,0,0.9,0.3,1.1
	C6.2,33.3,6.7,33.3,7.2,33z"/>
<path d="M6.2,23.5L19,8c0.3-0.5,0.4-1,0.3-1.6c-0.1-0.5-0.4-0.9-0.8-1.1L5.3,0.5c-0.5-0.1-1,0.2-1.1,0.7
	C4.1,1.5,4.3,1.8,4.6,2l7.7,5.5c0.2,0.1,0.3,0.4,0.4,0.6c0,0.2,0,0.5-0.1,0.7L4.7,22.4c-0.1,0.4,0,0.8,0.3,1
	C5.3,23.7,5.8,23.8,6.2,23.5z"/>
</svg>
